<svg xmlns="http://www.w3.org/2000/svg" width="24" height="24" viewBox="0 0 24 24"><title>  logo</title><desc>  Created with Sketch.</desc><defs><linearGradient x1="84.2" y1="15.8" x2="14.6" y2="83.9"><stop stop-color="#0000B3" offset="0%"/><stop stop-color="#0000FF" offset="100%"/></linearGradient></defs><g fill="none"><circle cx="12" cy="12" r="12" fill="url(#linearGradient-1)"/><path d="M6.7 8L7.8 8 7.8 11.3 7.9 11.3C8 10.9 8.2 10.7 8.5 10.5 8.7 10.3 9.1 10.2 9.4 10.2 10.1 10.2 10.7 10.5 11.1 11 11.5 11.5 11.6 12.2 11.6 13.1 11.6 14 11.5 14.8 11.1 15.3 10.7 15.8 10.1 16 9.4 16 9.1 16 8.7 15.9 8.5 15.7 8.2 15.6 8 15.3 7.9 15L7.8 15 7.8 15.9 6.7 15.9 6.7 8ZM9.1 15C9.5 15 9.8 14.9 10.1 14.6 10.3 14.4 10.4 14 10.4 13.6L10.4 12.6C10.4 12.2 10.3 11.9 10.1 11.6 9.8 11.4 9.5 11.2 9.1 11.2 8.7 11.2 8.4 11.3 8.2 11.5 8 11.7 7.8 11.9 7.8 12.2L7.8 14.1C7.8 14.4 8 14.6 8.2 14.8 8.4 14.9 8.7 15 9.1 15ZM16.5 15L16.4 15C16.3 15.3 16.1 15.6 15.8 15.7 15.6 15.9 15.2 16 14.9 16 14.2 16 13.6 15.8 13.2 15.3 12.8 14.8 12.7 14 12.7 13.1 12.7 12.2 12.8 11.5 13.2 11 13.6 10.5 14.2 10.2 14.9 10.2 15.2 10.2 15.6 10.3 15.8 10.5 16.1 10.7 16.3 10.9 16.4 11.3L16.5 11.3 16.5 8 17.6 8 17.6 15.9 16.5 15.9 16.5 15ZM15.2 15C15.6 15 15.9 14.9 16.1 14.8 16.3 14.6 16.5 14.4 16.5 14.1L16.5 12.2C16.5 11.9 16.3 11.7 16.1 11.5 15.9 11.3 15.6 11.2 15.2 11.2 14.8 11.2 14.5 11.4 14.2 11.6 14 11.9 13.9 12.2 13.9 12.6L13.9 13.6C13.9 14 14 14.4 14.2 14.6 14.5 14.9 14.8 15 15.2 15Z" fill="#FFF"/></g></svg>